<?xml version="1.0" standalone="no"?>
<!DOCTYPE svg PUBLIC "-//W3C//DTD SVG 20010904//EN"
 "http://www.w3.org/TR/2001/REC-SVG-20010904/DTD/svg10.dtd">
<svg version="1.0" xmlns="http://www.w3.org/2000/svg"
 width="425.000000pt" height="425.000000pt" viewBox="0 0 425.000000 425.000000"
 preserveAspectRatio="xMidYMid meet">
<metadata>
Created by potrace 1.14, written by Peter Selinger 2001-2017
</metadata>
<g transform="translate(0.000000,425.000000) scale(0.100000,-0.100000)"
fill="#000000" stroke="none">
<path d="M1861 3983 c-12 -49 -29 -109 -37 -134 -8 -25 -16 -54 -18 -65 -2
-10 -11 -39 -19 -64 -20 -61 -60 -192 -63 -207 -1 -7 -12 -44 -24 -82 -14 -47
-25 -68 -34 -65 -7 3 -58 53 -112 112 -155 167 -206 221 -255 273 -26 27 -62
66 -81 86 -19 21 -42 45 -52 53 -18 14 -18 12 -11 -45 4 -33 9 -76 11 -95 3
-32 8 -72 19 -160 5 -41 15 -140 20 -190 1 -19 6 -62 10 -95 9 -67 13 -155 7
-155 -5 0 -140 60 -217 96 -33 15 -62 29 -65 29 -3 1 -27 12 -55 25 -27 13
-53 23 -57 22 -5 -1 -8 3 -8 8 0 6 -4 10 -10 10 -5 0 -40 14 -77 31 -164 76
-193 88 -193 78 0 -14 53 -113 63 -117 4 -2 7 -8 7 -13 0 -11 120 -230 130
-239 7 -6 22 -43 20 -49 -1 -2 2 -7 7 -10 5 -3 16 -19 25 -36 8 -16 34 -66 56
-109 23 -44 40 -82 37 -84 -2 -3 -35 -4 -72 -3 -69 1 -93 1 -115 1 -7 -1 -69
2 -138 5 -69 3 -177 8 -240 10 -63 3 -130 6 -147 8 -18 2 -33 0 -33 -4 0 -5
33 -34 73 -66 39 -32 78 -64 85 -71 8 -7 30 -25 50 -40 21 -15 39 -29 42 -32
3 -3 39 -32 80 -65 41 -32 77 -61 80 -65 3 -3 21 -17 40 -31 19 -15 51 -41 70
-58 19 -17 38 -31 43 -31 4 0 7 -7 7 -15 0 -12 -31 -33 -60 -39 -9 -2 -153
-58 -185 -71 -16 -7 -39 -15 -50 -18 -11 -3 -83 -29 -160 -57 -77 -29 -144
-53 -150 -54 -5 -1 -27 -8 -47 -16 -52 -19 -50 -33 7 -43 11 -2 27 -7 35 -10
12 -5 124 -37 180 -51 8 -2 49 -14 90 -26 41 -12 84 -23 95 -25 12 -3 45 -13
75 -23 30 -11 60 -20 65 -21 41 -8 115 -34 124 -44 7 -9 2 -18 -17 -34 -15
-12 -49 -42 -77 -68 -123 -116 -198 -186 -280 -260 -184 -168 -183 -166 -105
-158 19 2 54 5 77 6 24 1 43 4 43 7 0 3 10 5 23 6 12 0 47 3 77 7 30 4 80 9
110 12 30 3 73 8 95 10 22 3 75 8 119 11 73 6 78 5 73 -12 -11 -36 -18 -89
-21 -159 -2 -39 -9 -71 -15 -73 -6 -2 -11 -8 -11 -13 0 -9 -24 -62 -164 -361
-26 -55 -13 -63 47 -31 29 16 54 31 57 34 3 4 15 9 27 13 13 4 29 13 36 19 7
7 40 26 74 44 l61 32 48 -52 c46 -50 150 -126 162 -119 2 2 8 -2 13 -10 5 -7
12 -13 16 -13 21 0 103 -38 98 -45 -4 -7 -17 -199 -15 -240 0 -8 0 -29 0 -47
0 -17 4 -34 10 -38 5 -3 10 -2 10 2 0 5 10 19 23 33 12 14 38 45 57 70 19 25
37 47 41 50 3 3 31 37 61 77 31 40 58 69 62 66 3 -4 6 1 6 11 0 14 36 36 58
36 4 0 31 -23 61 -50 30 -28 60 -50 67 -50 6 0 14 -7 18 -15 3 -8 12 -15 21
-15 8 0 15 -4 15 -10 0 -5 4 -10 10 -10 5 0 32 -14 60 -30 28 -17 56 -30 63
-30 7 0 22 -31 34 -68 23 -72 64 -184 70 -191 5 -7 32 33 33 48 0 8 9 44 20
81 l20 68 123 -1 c111 0 140 2 216 18 46 9 130 35 175 55 l45 19 25 -27 c14
-15 36 -39 50 -55 31 -34 48 -35 42 -2 -5 25 5 40 18 28 4 -4 14 -8 24 -10
200 -37 337 -33 491 13 31 10 58 18 61 19 12 3 65 30 70 35 3 3 11 6 18 8 13
2 93 52 102 63 3 3 13 10 23 15 23 13 139 125 157 153 9 13 29 24 50 27 62 8
130 26 135 35 3 4 12 6 20 2 8 -3 15 -1 15 3 0 5 14 15 32 23 17 8 40 21 51
30 26 21 116 111 111 111 -2 0 10 21 26 47 41 64 63 145 62 223 -1 159 -72
302 -194 393 -20 15 -41 27 -46 27 -5 0 -15 7 -22 15 -7 8 -18 15 -26 15 -7 0
-25 5 -41 12 -30 12 -38 14 -65 16 -10 1 -35 28 -56 60 -50 72 -148 183 -156
175 -3 -4 -6 -1 -6 5 0 6 -30 32 -66 59 l-65 48 38 17 c21 9 46 17 56 17 9 1
17 6 17 13 0 6 3 9 6 5 5 -5 66 14 144 46 14 6 27 11 30 11 18 5 106 41 113
46 11 10 -47 31 -148 55 -5 1 -17 5 -25 8 -18 7 -336 97 -359 102 -28 5 -146
45 -159 54 -19 11 -17 18 15 47 16 14 68 62 116 107 49 45 105 97 125 116 20
19 74 69 119 111 45 43 90 84 100 92 10 7 27 23 37 36 l20 23 -78 -5 c-42 -3
-80 -7 -84 -10 -4 -2 -41 -7 -82 -11 -41 -4 -88 -9 -105 -11 -16 -3 -52 -7
-79 -9 -95 -9 -151 -15 -206 -23 -30 -4 -68 -7 -85 -7 -37 1 -36 18 6 104 16
34 29 66 29 71 0 6 4 10 8 10 4 0 8 10 9 21 1 12 9 29 17 38 9 10 16 21 16 25
0 14 75 171 85 178 5 4 7 8 3 8 -4 0 18 52 48 115 30 63 54 117 54 120 0 7
-24 2 -30 -6 -3 -4 -34 -21 -70 -39 -36 -18 -73 -39 -82 -48 -10 -8 -18 -12
-18 -7 0 4 -6 3 -12 -3 -19 -15 -339 -192 -348 -192 -4 0 -13 -7 -20 -15 -6
-8 -15 -14 -18 -13 -4 1 -22 -6 -39 -15 -31 -17 -33 -17 -34 0 -4 60 9 414 15
420 3 3 1 15 -4 28 -5 13 -6 26 -3 29 11 10 14 258 3 254 -5 -2 -32 -32 -60
-68 -28 -36 -63 -78 -76 -95 -14 -16 -79 -97 -145 -180 -66 -82 -136 -169
-156 -192 l-37 -41 -17 37 c-9 20 -31 77 -49 126 -18 50 -37 101 -43 115 -6
14 -11 30 -13 35 -1 6 -21 60 -44 120 -23 61 -48 130 -57 155 -8 25 -19 49
-24 55 -5 5 -9 19 -9 32 0 13 -6 23 -13 23 -7 0 -22 -36 -36 -87z"/>
</g>
</svg>
